<svg width="28" height="24" viewBox="0 0 28 24" fill="none" xmlns="http://www.w3.org/2000/svg">
<path fill-rule="evenodd" clip-rule="evenodd" d="M12.8859 0.499909C12.9194 0.499925 12.9534 0.499941 12.9878 0.499941L21.7408 0.499941C22.5458 0.499928 23.2102 0.499917 23.7514 0.544135C24.3135 0.59006 24.8302 0.688624 25.3155 0.935915C26.0682 1.31941 26.6801 1.93133 27.0636 2.68398C27.3109 3.16931 27.4094 3.68602 27.4554 4.24812C27.4996 4.7893 27.4996 5.45366 27.4995 6.25862V17.7413C27.4996 18.5462 27.4996 19.2106 27.4554 19.7518C27.4094 20.3139 27.3109 20.8306 27.0636 21.3159C26.6801 22.0686 26.0682 22.6805 25.3155 23.064C24.8302 23.3113 24.3135 23.4098 23.7514 23.4557C23.2102 23.5 22.5458 23.5 21.7409 23.4999H12.9878C12.9534 23.4999 12.9194 23.5 12.8859 23.5C12.2509 23.5003 11.7711 23.5005 11.3084 23.3894C10.9003 23.2914 10.5101 23.1298 10.1522 22.9105C9.74648 22.6619 9.40737 22.3225 8.95858 21.8732C8.93489 21.8495 8.91089 21.8255 8.88655 21.8012L3.15735 16.072C2.58814 15.5028 2.11836 15.033 1.76694 14.6191C1.40195 14.1891 1.10628 13.7541 0.937961 13.236C0.67693 12.4326 0.67693 11.5672 0.937961 10.7639C1.10628 10.2458 1.40195 9.81077 1.76694 9.38083C2.11836 8.96688 2.58813 8.49712 3.15734 7.92793L8.88655 2.19872C8.91088 2.17439 8.93488 2.15037 8.95857 2.12666C9.40737 1.67743 9.74647 1.33801 10.1522 1.08938C10.5101 0.870066 10.9003 0.708448 11.3084 0.610461C11.7711 0.499378 12.2509 0.499607 12.8859 0.499909ZM12.9878 2.49994C12.2064 2.49994 11.9787 2.50637 11.7753 2.5552C11.5712 2.60419 11.3761 2.685 11.1972 2.79466C11.0188 2.90396 10.8533 3.06042 10.3008 3.61294L4.60077 9.31293C3.99507 9.91863 3.58388 10.3309 3.29162 10.6752C3.00694 11.0105 2.89432 11.215 2.84007 11.3819C2.70956 11.7836 2.70956 12.2163 2.84007 12.618C2.89432 12.7849 3.00694 12.9894 3.29162 13.3247C3.58388 13.669 3.99507 14.0813 4.60077 14.6869L10.3008 20.3869C10.8533 20.9395 11.0188 21.0959 11.1972 21.2052C11.3761 21.3149 11.5712 21.3957 11.7753 21.4447C11.9787 21.4935 12.2064 21.4999 12.9878 21.4999H21.6995C22.5561 21.4999 23.1384 21.4992 23.5885 21.4624C24.0269 21.4266 24.2511 21.3616 24.4075 21.282C24.7839 21.0902 25.0898 20.7842 25.2816 20.4079C25.3612 20.2515 25.4262 20.0273 25.462 19.5889C25.4988 19.1388 25.4995 18.5565 25.4995 17.6999V6.29994C25.4995 5.44336 25.4988 4.86107 25.462 4.41098C25.4262 3.97256 25.3612 3.74836 25.2816 3.59196C25.0898 3.21564 24.7839 2.90967 24.4075 2.71793C24.2511 2.63824 24.0269 2.57331 23.5885 2.53749C23.1384 2.50072 22.5561 2.49994 21.6995 2.49994H12.9878ZM11.7924 7.29283C12.183 6.90231 12.8161 6.90231 13.2067 7.29283L16.4995 10.5857L19.7924 7.29283C20.183 6.90231 20.8161 6.90231 21.2067 7.29283C21.5972 7.68336 21.5972 8.31652 21.2067 8.70705L17.9138 11.9999L21.2067 15.2928C21.5972 15.6834 21.5972 16.3165 21.2067 16.707C20.8161 17.0976 20.183 17.0976 19.7924 16.707L16.4995 13.4142L13.2067 16.707C12.8161 17.0976 12.183 17.0976 11.7924 16.707C11.4019 16.3165 11.4019 15.6834 11.7924 15.2928L15.0853 11.9999L11.7924 8.70705C11.4019 8.31652 11.4019 7.68336 11.7924 7.29283Z" fill="#007AFF"/>
</svg>
